# xmcd CD database file
#
# Track frame offsets:
#	150
#	10782
#	22780
#	38257
#	54967
#	66557
#	79212
#	103035
#	119785
#	131777
#	152155
#	171240
#	177167
#	198302
#
# Disc length: 2925 seconds
#
# Revision: 1
# Processed by: cddbd v1.5.2PL0 Copyright (c) Steve Scherf et al.
# Submitted via: CDex 1.51
#
DISCID=b50b6b0e
DTITLE=Larry Norman - Down Under (But Not Out)
DYEAR=1900
DGENRE=Rock
TTITLE0=Riding High
TTITLE1=I've Got You On My Mind
TTITLE2=Hasty Heart
TTITLE3=Sweet Song Of Salvation
TTITLE4=What Goes Thru Your Mind
TTITLE5=I've Searched All Around The World
TTITLE6=I Hope I'll See You In Heaven
TTITLE7=Soul On Fire (Nite Lite Mix)
TTITLE8=Stop This Flight (First Demo)
TTITLE9=Out Of My System
TTITLE10=Why Can't You Be Good
TTITLE11=Why Should The Devil (Punk)
TTITLE12=If The Bombs Fall
TTITLE13=Galaxy
EXTD=
EXTT0=
EXTT1=
EXTT2=
EXTT3=
EXTT4=
EXTT5=
EXTT6=
EXTT7=
EXTT8=
EXTT9=
EXTT10=
EXTT11=
EXTT12=
EXTT13=
PLAYORDER=
